<svg width="33" height="28" viewBox="0 0 33 28" fill="none" xmlns="http://www.w3.org/2000/svg">
<path d="M33.0004 13.5492C33.0004 14.3086 32.4361 14.9362 31.7039 15.0355L31.5004 15.0492L1.50039 15.0492C0.671962 15.0492 0.000389099 14.3776 0.000389099 13.5492C0.000389099 12.7898 0.564697 12.1622 1.29685 12.0629L1.50039 12.0492L31.5004 12.0492C32.3288 12.0492 33.0004 12.7208 33.0004 13.5492Z" fill="black"/>
<path d="M14.6584 24.5351C15.2454 25.1196 15.2475 26.0693 14.6629 26.6564C14.1316 27.1901 13.2983 27.2403 12.7102 26.8058L12.5416 26.6609L0.441625 14.6129C-0.0936486 14.08 -0.142343 13.2437 0.295566 12.6556L0.441537 12.4871L12.5415 0.437146C13.1285 -0.147426 14.0783 -0.14546 14.6629 0.441538C15.1943 0.975173 15.241 1.8086 14.804 2.39492L14.6585 2.56285L3.6264 13.5506L14.6584 24.5351Z" fill="black"/>
</svg>
