<svg width="22" height="22" viewBox="0 0 22 22" fill="none" xmlns="http://www.w3.org/2000/svg">
<mask id="mask0_132_1043" style="mask-type:luminance" maskUnits="userSpaceOnUse" x="1" y="1" width="20" height="20">
<path fill-rule="evenodd" clip-rule="evenodd" d="M1.83301 1.83351H20.6243V20.6247H1.83301V1.83351Z" fill="white"/>
</mask>
<g mask="url(#mask0_132_1043)">
<path fill-rule="evenodd" clip-rule="evenodd" d="M3.9955 4.63897C3.99733 4.63897 3.9515 4.68664 3.89375 4.74347C3.67192 4.95889 3.21267 5.40714 3.20808 6.34489C3.20075 7.65664 4.06333 10.0922 8.21675 14.2447C12.3509 18.3771 14.7828 19.2497 16.0973 19.2497H16.1166C17.0543 19.2451 17.5017 18.785 17.718 18.5641C17.784 18.4962 17.8372 18.4467 17.8748 18.4156C18.7878 17.4971 19.2553 16.8132 19.2507 16.3751C19.2443 15.9277 18.6878 15.3988 17.9188 14.6673C17.674 14.4345 17.4082 14.1815 17.1277 13.901C16.4008 13.1759 16.0405 13.2996 15.2485 13.5783C14.1531 13.9624 12.6498 14.4849 10.3141 12.1483C7.97475 9.81081 8.49817 8.30931 8.88133 7.21389C9.15817 6.42189 9.28467 6.06072 8.55684 5.33289C8.27175 5.04872 8.016 4.77922 7.78042 4.53172C7.0535 3.76722 6.52917 3.21447 6.08459 3.20806H6.07725C5.63817 3.20806 4.95617 3.67739 3.99092 4.64264C3.99367 4.63989 3.99459 4.63897 3.9955 4.63897ZM16.0983 20.6247C13.8139 20.6247 10.8357 18.8061 7.24509 15.2173C3.64075 11.6139 1.81934 8.62647 1.83309 6.33756C1.84134 4.82506 2.63425 4.05047 2.93217 3.75989C2.94775 3.74064 3.00092 3.68839 3.01925 3.67006C4.33375 2.35464 5.22017 1.82297 6.102 1.83306C7.12592 1.84681 7.85467 2.61314 8.77683 3.58389C9.00508 3.82406 9.25259 4.08531 9.5285 4.36031C10.8668 5.69864 10.4855 6.79039 10.1793 7.66672C9.84567 8.62281 9.55692 9.44781 11.2858 11.1766C13.0164 12.9055 13.8414 12.6167 14.7938 12.2803C15.6711 11.9741 16.7601 11.591 18.1003 12.9293C18.3716 13.2006 18.6292 13.4454 18.8666 13.6718C19.8419 14.5986 20.6119 15.331 20.6248 16.3576C20.6358 17.2331 20.1041 18.125 18.7914 19.4386L18.2103 19.0444L18.7016 19.5247C18.411 19.8226 17.6373 20.6165 16.1239 20.6247H16.0983Z" fill="black"/>
</g>
</svg>
