<svg width="21" height="21" viewBox="0 0 21 21" fill="none" xmlns="http://www.w3.org/2000/svg">
<mask id="mask0_145_917" style="mask-type:luminance" maskUnits="userSpaceOnUse" x="12" y="0" width="9" height="9">
<path fill-rule="evenodd" clip-rule="evenodd" d="M12.3535 0.000488281H20.8925V8.5333H12.3535V0.000488281Z" fill="white"/>
</mask>
<g mask="url(#mask0_145_917)">
<path fill-rule="evenodd" clip-rule="evenodd" d="M20.1422 8.5333C19.7652 8.5333 19.4412 8.2503 19.3982 7.8673C19.0192 4.4913 16.3972 1.8713 13.0202 1.4963C12.6092 1.4503 12.3122 1.0803 12.3582 0.668302C12.4032 0.257302 12.7702 -0.0456981 13.1862 0.0063019C17.2642 0.459302 20.4312 3.6223 20.8882 7.6993C20.9342 8.1113 20.6382 8.4823 20.2272 8.5283C20.1992 8.5313 20.1702 8.5333 20.1422 8.5333Z" fill="#D5FFFA"/>
</g>
<path fill-rule="evenodd" clip-rule="evenodd" d="M16.602 8.54391C16.25 8.54391 15.937 8.29591 15.867 7.93791C15.579 6.45791 14.438 5.31691 12.96 5.02991C12.553 4.95091 12.288 4.55791 12.367 4.15091C12.446 3.74391 12.846 3.47791 13.246 3.55791C15.327 3.96191 16.934 5.56791 17.339 7.64991C17.418 8.05791 17.153 8.45091 16.747 8.52991C16.698 8.53891 16.65 8.54391 16.602 8.54391Z" fill="#D5FFFA"/>
<mask id="mask1_145_917" style="mask-type:luminance" maskUnits="userSpaceOnUse" x="0" y="0" width="21" height="21">
<path fill-rule="evenodd" clip-rule="evenodd" d="M0 0H20.5002V20.5005H0V0Z" fill="white"/>
</mask>
<g mask="url(#mask1_145_917)">
<path fill-rule="evenodd" clip-rule="evenodd" d="M2.35908 3.06154C2.36108 3.06154 2.31108 3.11354 2.24808 3.17554C2.00608 3.41054 1.50508 3.89954 1.50008 4.92254C1.49208 6.35354 2.43308 9.01054 6.96408 13.5405C11.4731 18.0485 14.1261 19.0005 15.5611 19.0005H15.5821C16.6051 18.9945 17.0931 18.4935 17.3281 18.2525C17.3991 18.1795 17.4571 18.1245 17.4981 18.0915C18.4951 17.0885 19.0051 16.3435 19.0001 15.8645C18.9941 15.3765 18.3871 14.8005 17.5481 14.0015C17.2811 13.7485 16.9911 13.4715 16.6851 13.1655C15.8911 12.3745 15.5001 12.5095 14.6351 12.8135C13.4401 13.2325 11.8031 13.8065 9.25208 11.2535C6.70008 8.70254 7.27208 7.06554 7.68908 5.86954C7.99108 5.00554 8.12908 4.61254 7.33608 3.81854C7.02608 3.50854 6.74708 3.21454 6.49008 2.94454C5.69608 2.11054 5.12308 1.50754 4.63808 1.50054H4.63008C4.15108 1.50054 3.40708 2.01254 2.35408 3.06554C2.35708 3.06254 2.35808 3.06154 2.35908 3.06154ZM15.5611 20.5005C13.0691 20.5005 9.82008 18.5165 5.90408 14.6015C1.97208 10.6705 -0.0149157 7.41154 8.42937e-05 4.91454C0.00908429 3.26454 0.874084 2.41954 1.19908 2.10254C1.21608 2.08154 1.27408 2.02454 1.29408 2.00454C2.72908 0.56954 3.71508 -0.0204599 4.65708 0.000540144C5.77408 0.0155401 6.57008 0.85254 7.57708 1.91154C7.82608 2.17254 8.09508 2.45754 8.39608 2.75754C9.85508 4.21754 9.44008 5.40854 9.10508 6.36454C8.74108 7.40754 8.42608 8.30754 10.3121 10.1935C12.1981 12.0795 13.0971 11.7645 14.1391 11.3975C15.0961 11.0635 16.2841 10.6455 17.7461 12.1055C18.0431 12.4025 18.3231 12.6685 18.5831 12.9155C19.6461 13.9275 20.4861 14.7265 20.5001 15.8465C20.5111 16.8005 19.9311 17.7745 18.4991 19.2065L17.8651 18.7765L18.4021 19.2995C18.0851 19.6245 17.2421 20.4905 15.5911 20.5005H15.5611Z" fill="#D5FFFA"/>
</g>
</svg>
