<svg width="17" height="17" viewBox="0 0 17 17" fill="none" xmlns="http://www.w3.org/2000/svg">
<path opacity="0.4" d="M14.1616 13.4252H10.1281C9.73462 13.4252 9.41455 13.7504 9.41455 14.1501C9.41455 14.5506 9.73462 14.875 10.1281 14.875H14.1616C14.5551 14.875 14.8752 14.5506 14.8752 14.1501C14.8752 13.7504 14.5551 13.4252 14.1616 13.4252Z" fill="#004039" fill-opacity="0.6"/>
<path d="M7.30222 4.89024L11.1243 7.97864C11.2165 8.0525 11.2322 8.18804 11.1603 8.28245L6.62911 14.1867C6.34427 14.5514 5.92451 14.7577 5.47477 14.7653L3.00118 14.7958C2.86926 14.7973 2.75382 14.706 2.72384 14.575L2.16166 12.1308C2.06422 11.6815 2.16166 11.217 2.4465 10.8592L7.00015 4.92679C7.0736 4.83161 7.20928 4.81486 7.30222 4.89024Z" fill="#004039" fill-opacity="0.6"/>
<path opacity="0.4" d="M12.8354 6.13802L12.0986 7.05784C12.0244 7.15149 11.891 7.16672 11.7988 7.0921C10.903 6.36721 8.60932 4.50702 7.97294 3.99152C7.87999 3.91538 7.86725 3.77984 7.94221 3.68542L8.6528 2.80292C9.29743 1.97295 10.4218 1.8968 11.3288 2.62017L12.3707 3.45014C12.7979 3.78517 13.0828 4.22681 13.1802 4.69128C13.2927 5.20221 13.1727 5.704 12.8354 6.13802Z" fill="#004039" fill-opacity="0.6"/>
</svg>
