<svg width="24" height="24" viewBox="0 0 24 24" fill="none" xmlns="http://www.w3.org/2000/svg">
<path fill-rule="evenodd" clip-rule="evenodd" d="M16.577 22.3687H7.753C4.312 22.3687 2 19.9537 2 16.3597V8.0457C2 4.4517 4.312 2.0367 7.753 2.0367H11.492C11.906 2.0367 12.242 2.3727 12.242 2.7867C12.242 3.2007 11.906 3.5367 11.492 3.5367H7.753C5.169 3.5367 3.5 5.3067 3.5 8.0457V16.3597C3.5 19.0987 5.169 20.8687 7.753 20.8687H16.577C19.161 20.8687 20.831 19.0987 20.831 16.3597V12.3317C20.831 11.9177 21.167 11.5817 21.581 11.5817C21.995 11.5817 22.331 11.9177 22.331 12.3317V16.3597C22.331 19.9537 20.018 22.3687 16.577 22.3687Z" fill="#2D7579"/>
<path fill-rule="evenodd" clip-rule="evenodd" d="M8.86786 15.4283H11.8449C12.2249 15.4283 12.5809 15.2813 12.8499 15.0123L20.3589 7.5033C20.6669 7.1953 20.8369 6.7853 20.8369 6.3493C20.8369 5.9123 20.6669 5.5013 20.3589 5.1933L19.1419 3.9763C18.5049 3.3413 17.4689 3.3413 16.8309 3.9763L9.35786 11.4493C9.09886 11.7083 8.95186 12.0523 8.94286 12.4173L8.86786 15.4283ZM11.8449 16.9283H8.09886C7.89686 16.9283 7.70286 16.8463 7.56186 16.7013C7.42086 16.5573 7.34386 16.3623 7.34886 16.1593L7.44286 12.3803C7.46186 11.6283 7.76486 10.9213 8.29686 10.3883H8.29786L15.7709 2.9153C16.9929 1.6953 18.9799 1.6953 20.2019 2.9153L21.4189 4.1323C22.0119 4.7243 22.3379 5.5113 22.3369 6.3493C22.3369 7.1873 22.0109 7.9733 21.4189 8.5643L13.9099 16.0733C13.3589 16.6243 12.6249 16.9283 11.8449 16.9283Z" fill="#2D7579"/>
<path fill-rule="evenodd" clip-rule="evenodd" d="M19.7308 9.9166C19.5388 9.9166 19.3468 9.8436 19.2008 9.6966L14.6348 5.1306C14.3418 4.8376 14.3418 4.3626 14.6348 4.0696C14.9278 3.7766 15.4018 3.7766 15.6948 4.0696L20.2608 8.6366C20.5538 8.9296 20.5538 9.4036 20.2608 9.6966C20.1148 9.8436 19.9228 9.9166 19.7308 9.9166Z" fill="#2D7579"/>
</svg>
