<svg width="51" height="51" viewBox="0 0 51 51" fill="none" xmlns="http://www.w3.org/2000/svg">
<path d="M12.9075 31L18.06 22.06H12.3V20.5H19.8675V22.06L14.7 31H12.9075ZM24.2463 31.195C23.5813 31.195 22.9788 31.035 22.4388 30.715C21.9038 30.39 21.4788 29.96 21.1638 29.425C20.8538 28.885 20.6988 28.295 20.6988 27.655H22.2588C22.2588 28.02 22.3488 28.3525 22.5288 28.6525C22.7088 28.9525 22.9488 29.1925 23.2488 29.3725C23.5488 29.5475 23.8813 29.635 24.2463 29.635C24.6063 29.635 24.9363 29.5475 25.2363 29.3725C25.5363 29.1925 25.7763 28.9525 25.9563 28.6525C26.1363 28.3525 26.2263 28.02 26.2263 27.655C26.2263 27.29 26.1438 26.9575 25.9788 26.6575C25.8138 26.3525 25.5663 26.11 25.2363 25.93C24.9063 25.745 24.4863 25.6525 23.9763 25.6525H21.3288L22.3938 20.5H27.4713V22.06H23.6613L23.2488 24.0925L24.1563 24.1075C24.8713 24.1225 25.4988 24.2875 26.0388 24.6025C26.5838 24.9125 27.0113 25.3325 27.3213 25.8625C27.6313 26.3875 27.7863 26.985 27.7863 27.655C27.7863 28.14 27.6938 28.5975 27.5088 29.0275C27.3238 29.4525 27.0688 29.8275 26.7438 30.1525C26.4238 30.4775 26.0488 30.7325 25.6188 30.9175C25.1938 31.1025 24.7363 31.195 24.2463 31.195ZM30.1096 31L36.1696 20.5H37.9696L31.9096 31H30.1096ZM31.3771 24.9025C30.9971 24.9025 30.6471 24.81 30.3271 24.625C30.0121 24.435 29.7596 24.1825 29.5696 23.8675C29.3796 23.5475 29.2846 23.195 29.2846 22.81C29.2846 22.41 29.3796 22.0525 29.5696 21.7375C29.7646 21.4225 30.0196 21.175 30.3346 20.995C30.6546 20.81 31.0021 20.7175 31.3771 20.7175C31.7621 20.7175 32.1121 20.8125 32.4271 21.0025C32.7421 21.1875 32.9946 21.4375 33.1846 21.7525C33.3746 22.0675 33.4696 22.42 33.4696 22.81C33.4696 23.205 33.3721 23.56 33.1771 23.875C32.9871 24.19 32.7321 24.44 32.4121 24.625C32.0971 24.81 31.7521 24.9025 31.3771 24.9025ZM31.3771 23.8C31.6571 23.8 31.8921 23.705 32.0821 23.515C32.2721 23.32 32.3671 23.085 32.3671 22.81C32.3671 22.53 32.2721 22.295 32.0821 22.105C31.8921 21.91 31.6571 21.8125 31.3771 21.8125C31.1021 21.8125 30.8671 21.91 30.6721 22.105C30.4821 22.295 30.3871 22.53 30.3871 22.81C30.3871 23.085 30.4821 23.32 30.6721 23.515C30.8671 23.705 31.1021 23.8 31.3771 23.8ZM36.7171 30.7975C36.3271 30.7975 35.9721 30.7 35.6521 30.505C35.3371 30.305 35.0846 30.0475 34.8946 29.7325C34.7096 29.4125 34.6171 29.0675 34.6171 28.6975C34.6171 28.3075 34.7146 27.955 34.9096 27.64C35.1046 27.32 35.3596 27.0675 35.6746 26.8825C35.9946 26.6925 36.3421 26.5975 36.7171 26.5975C37.1121 26.5975 37.4671 26.695 37.7821 26.89C38.0971 27.085 38.3471 27.3425 38.5321 27.6625C38.7171 27.9825 38.8096 28.3275 38.8096 28.6975C38.8096 29.0825 38.7146 29.435 38.5246 29.755C38.3396 30.07 38.0871 30.3225 37.7671 30.5125C37.4521 30.7025 37.1021 30.7975 36.7171 30.7975ZM36.7171 29.695C36.9871 29.695 37.2196 29.5975 37.4146 29.4025C37.6096 29.2075 37.7071 28.9725 37.7071 28.6975C37.7071 28.4225 37.6096 28.1875 37.4146 27.9925C37.2196 27.7975 36.9871 27.7 36.7171 27.7C36.4421 27.7 36.2046 27.7975 36.0046 27.9925C35.8096 28.1875 35.7121 28.4225 35.7121 28.6975C35.7121 28.9725 35.8096 29.2075 36.0046 29.4025C36.2046 29.5975 36.4421 29.695 36.7171 29.695Z" fill="#082421"/>
<path d="M51 25.5C51 39.5833 39.5833 51 25.5 51C11.4167 51 0 39.5833 0 25.5C0 11.4167 11.4167 0 25.5 0C39.5833 0 51 11.4167 51 25.5ZM2.86038 25.5C2.86038 38.0035 12.9965 48.1396 25.5 48.1396C38.0035 48.1396 48.1396 38.0035 48.1396 25.5C48.1396 12.9965 38.0035 2.86038 25.5 2.86038C12.9965 2.86038 2.86038 12.9965 2.86038 25.5Z" fill="#D9D9D9"/>
<path d="M25.5 2.66086C25.5 1.19131 26.6946 -0.0143743 28.1561 0.138691C32.2606 0.568543 36.2136 1.99003 39.667 4.29752C43.8605 7.0995 47.1289 11.0821 49.0589 15.7416C50.989 20.4011 51.4939 25.5283 50.51 30.4748C49.5261 35.4213 47.0975 39.965 43.5312 43.5312C39.965 47.0975 35.4213 49.5261 30.4748 50.51C25.5283 51.4939 20.4011 50.989 15.7416 49.0589C11.0821 47.1289 7.0995 43.8605 4.29752 39.667C1.99003 36.2136 0.568543 32.2606 0.138691 28.1561C-0.0143744 26.6946 1.19131 25.5 2.66086 25.5C4.13041 25.5 5.30367 26.6964 5.4969 28.1532C5.90146 31.2032 7 34.1327 8.72237 36.7105C10.9396 40.0288 14.091 42.6151 17.7781 44.1423C21.4652 45.6695 25.5224 46.0691 29.4366 45.2906C33.3508 44.512 36.9462 42.5902 39.7682 39.7682C42.5902 36.9462 44.512 33.3508 45.2906 29.4366C46.0691 25.5224 45.6695 21.4652 44.1423 17.7781C42.6151 14.091 40.0288 10.9396 36.7105 8.72237C34.1327 7 31.2032 5.90146 28.1532 5.4969C26.6964 5.30367 25.5 4.13041 25.5 2.66086Z" fill="#00665B" fill-opacity="0.95"/>
</svg>
