<svg width="22" height="22" viewBox="0 0 22 22" fill="none" xmlns="http://www.w3.org/2000/svg">
<path fill-rule="evenodd" clip-rule="evenodd" d="M10.7951 12.3427C10.1818 12.3427 9.57043 12.1402 9.05893 11.735L4.94768 8.42033C4.6516 8.18199 4.60576 7.74841 4.84318 7.45324C5.08243 7.15899 5.5151 7.11224 5.81026 7.34966L9.91785 10.6607C10.4339 11.0695 11.1608 11.0695 11.6806 10.657L15.7469 7.35149C16.0421 7.11041 16.4748 7.15624 16.7149 7.45141C16.9542 7.74566 16.9093 8.17833 16.615 8.41849L12.5413 11.7295C12.0262 12.1383 11.4102 12.3427 10.7951 12.3427Z" fill="black"/>
<mask id="mask0_132_1056" style="mask-type:luminance" maskUnits="userSpaceOnUse" x="0" y="1" width="21" height="19">
<path fill-rule="evenodd" clip-rule="evenodd" d="M0.916992 1.83334H20.6252V19.7083H0.916992V1.83334Z" fill="white"/>
</mask>
<g mask="url(#mask0_132_1056)">
<path fill-rule="evenodd" clip-rule="evenodd" d="M6.26941 18.3333H15.2711C15.2729 18.3315 15.2802 18.3333 15.2857 18.3333C16.3317 18.3333 17.2593 17.9593 17.9707 17.2489C18.7966 16.4267 19.2503 15.2451 19.2503 13.9223V7.62668C19.2503 5.06643 17.5765 3.20834 15.2711 3.20834H6.27124C3.96583 3.20834 2.29199 5.06643 2.29199 7.62668V13.9223C2.29199 15.2451 2.74666 16.4267 3.57166 17.2489C4.28299 17.9593 5.21158 18.3333 6.25658 18.3333H6.26941ZM6.25383 19.7083C4.83941 19.7083 3.57624 19.195 2.60091 18.2233C1.51466 17.1398 0.916992 15.6127 0.916992 13.9223V7.62668C0.916992 4.32393 3.21874 1.83334 6.27124 1.83334H15.2711C18.3236 1.83334 20.6253 4.32393 20.6253 7.62668V13.9223C20.6253 15.6127 20.0277 17.1398 18.9414 18.2233C17.967 19.1941 16.7029 19.7083 15.2857 19.7083H15.2711H6.27124H6.25383Z" fill="black"/>
</g>
</svg>
