<svg width="35" height="35" viewBox="0 0 35 35" fill="none" xmlns="http://www.w3.org/2000/svg">
<path d="M28.8304 16.9828C27.7651 15.7388 27.281 14.6607 27.281 12.8292V12.2064C27.281 9.81974 26.7317 8.28197 25.5374 6.7442C23.6967 4.35603 20.5979 2.91667 17.5643 2.91667H17.4353C14.4656 2.91667 11.4639 4.28994 9.59129 6.58117C8.33178 8.14978 7.71869 9.75365 7.71869 12.2064V12.8292C7.71869 14.6607 7.26648 15.7388 6.1693 16.9828C5.36199 17.8993 5.104 19.0772 5.104 20.3521C5.104 21.6284 5.52288 22.8372 6.36352 23.8198C7.4607 24.9977 9.01009 25.7497 10.5928 25.8804C12.8843 26.1418 15.1758 26.2402 17.5006 26.2402C19.8239 26.2402 22.1154 26.0757 24.4083 25.8804C25.9896 25.7497 27.539 24.9977 28.6362 23.8198C29.4753 22.8372 29.8957 21.6284 29.8957 20.3521C29.8957 19.0772 29.6377 17.8993 28.8304 16.9828Z" fill="#082421"/>
<path opacity="0.4" d="M20.4296 28.0414C19.7005 27.8857 15.2582 27.8857 14.5291 28.0414C13.9059 28.1853 13.2319 28.5202 13.2319 29.2545C13.2682 29.9551 13.6783 30.5735 14.2465 30.9656L14.2451 30.9671C14.9799 31.5399 15.8423 31.9041 16.7452 32.0349C17.2264 32.101 17.7163 32.098 18.2149 32.0349C19.1164 31.9041 19.9788 31.5399 20.7136 30.9671L20.7122 30.9656C21.2803 30.5735 21.6905 29.9551 21.7268 29.2545C21.7268 28.5202 21.0528 28.1853 20.4296 28.0414Z" fill="#082421"/>
</svg>
