<svg width="20" height="20" viewBox="0 0 20 20" fill="none" xmlns="http://www.w3.org/2000/svg">
<path d="M19.4274 0.578299C18.9274 0.0672987 18.1874 -0.121701 17.4974 0.0782986L1.40742 4.7273C0.67942 4.9293 0.16342 5.5063 0.0244202 6.2383C-0.11758 6.9843 0.37842 7.9323 1.02642 8.3283L6.05742 11.4003C6.57342 11.7163 7.23942 11.6373 7.66642 11.2093L13.4274 5.4483C13.7174 5.1473 14.1974 5.1473 14.4874 5.4483C14.7774 5.7373 14.7774 6.2083 14.4874 6.5083L8.71642 12.2693C8.28842 12.6973 8.20842 13.3613 8.52342 13.8783L11.5974 18.9283C11.9574 19.5273 12.5774 19.8683 13.2574 19.8683C13.3374 19.8683 13.4274 19.8683 13.5074 19.8573C14.2874 19.7583 14.9074 19.2273 15.1374 18.4773L19.9074 2.5083C20.1174 1.8283 19.9274 1.0883 19.4274 0.578299Z" fill="#082421"/>
<path opacity="0.4" d="M6.39062 17.142C6.68357 16.8503 7.15823 16.8503 7.45117 17.142C7.74317 17.435 7.74317 17.9106 7.45117 18.2036L6.08496 19.5678C5.93903 19.7147 5.74757 19.7884 5.55566 19.7885C5.36366 19.7885 5.17139 19.7148 5.02539 19.5678C4.7326 19.2748 4.73247 18.8012 5.02539 18.5082L6.39062 17.142ZM5.60645 13.3539C5.89945 13.062 6.37497 13.0619 6.66797 13.3539C6.95996 13.6469 6.95996 14.1225 6.66797 14.4155L5.30176 15.7797C5.15576 15.9267 4.96348 16.0004 4.77148 16.0004C4.57955 16.0004 4.38716 15.9267 4.24121 15.7797C3.94877 15.4868 3.94858 15.013 4.24121 14.7202L5.60645 13.3539ZM1.8457 12.1616C2.13864 11.8699 2.61331 11.8699 2.90625 12.1616C3.19825 12.4546 3.19825 12.9301 2.90625 13.2231L1.54004 14.5873C1.3941 14.7343 1.20266 14.808 1.01074 14.808C0.818742 14.808 0.626469 14.7343 0.480469 14.5873C0.187715 14.2943 0.187551 13.8207 0.480469 13.5278L1.8457 12.1616Z" fill="#082421"/>
</svg>
